HIERARCHY
ROOT hip
{
  OFFSET 343.43 68.3257 -38.3303
  CHANNELS 6 Xposition Yposition Zposition Zrotation Xrotation Yrotation
  JOINT abdomen
  {
    OFFSET 0 20.6881 -0.73152
    CHANNELS 3 Zrotation Xrotation Yrotation
    JOINT chest
    {
      OFFSET 0 11.7043 -0.48768
      CHANNELS 3 Zrotation Xrotation Yrotation
      JOINT neck
      {
        OFFSET 0 22.1894 -2.19456
        CHANNELS 3 Zrotation Xrotation Yrotation
        JOINT head
        {
          OFFSET -0.24384 7.07133 1.2192
          CHANNELS 3 Zrotation Xrotation Yrotation
          JOINT leftEye
          {
            OFFSET 4.14528 8.04674 8.04672
            CHANNELS 3 Zrotation Xrotation Yrotation
            End Site
            {
              OFFSET 1 0 0
            }
          }
          JOINT rightEye
          {
            OFFSET -3.6576 8.04674 8.04672
            CHANNELS 3 Zrotation Xrotation Yrotation
            End Site
            {
              OFFSET 1 0 0
            }
          }
        }
      }
      JOINT rCollar
      {
        OFFSET -2.68224 19.2634 -4.8768
        CHANNELS 3 Zrotation Xrotation Yrotation
        JOINT rShldr
        {
          OFFSET -8.77824 -1.95073 1.46304
          CHANNELS 3 Zrotation Xrotation Yrotation
          JOINT rForeArm
          {
            OFFSET -28.1742 -1.7115 0.48768
            CHANNELS 3 Zrotation Xrotation Yrotation
            JOINT rHand
            {
              OFFSET -22.5879 0.773209 7.07136
              CHANNELS 3 Zrotation Xrotation Yrotation
              JOINT rThumb1
              {
                OFFSET -1.2192 -0.487915 3.41376
                CHANNELS 3 Zrotation Xrotation Yrotation
                JOINT rThumb2
                {
                  OFFSET -3.37035 -0.52449 3.41376
                  CHANNELS 3 Zrotation Xrotation Yrotation
                  End Site
                  {
                    OFFSET -1.78271 -1.18214 1.43049
                  }
                }
              }
              JOINT rIndex1
              {
                OFFSET -7.75947 0.938293 5.60832
                CHANNELS 3 Zrotation Xrotation Yrotation
                JOINT rIndex2
                {
                  OFFSET -2.54057 -0.884171 1.56538
                  CHANNELS 3 Zrotation Xrotation Yrotation
                  End Site
                  {
                    OFFSET -1.62519 -0.234802 1.16502
                  }
                }
              }
              JOINT rMid1
              {
                OFFSET -8.24714 1.18213 3.41376
                CHANNELS 3 Zrotation Xrotation Yrotation
                JOINT rMid2
                {
                  OFFSET -3.10165 -0.590103 1.0647
                  CHANNELS 3 Zrotation Xrotation Yrotation
                  End Site
                  {
                    OFFSET -2.48547 -0.328903 0.83742
                  }
                }
              }
              JOINT rRing1
              {
                OFFSET -8.82822 0.546677 1.51678
                CHANNELS 3 Zrotation Xrotation Yrotation
                JOINT rRing2
                {
                  OFFSET -2.60934 -0.819778 -0.0198488
                  CHANNELS 3 Zrotation Xrotation Yrotation
                  End Site
                  {
                    OFFSET -2.33842 -0.294052 0.168128
                  }
                }
              }
              JOINT rPinky1
              {
                OFFSET -8.27202 -0.0477905 -0.4584
                CHANNELS 3 Zrotation Xrotation Yrotation
                JOINT rPinky2
                {
                  OFFSET -1.82734 -0.647385 -0.700984
                  CHANNELS 3 Zrotation Xrotation Yrotation
                  End Site
                  {
                    OFFSET -1.69225 -0.51767 -0.607171
                  }
                }
              }
            }
          }
        }
      }
      JOINT lCollar
      {
        OFFSET 2.68224 19.2634 -4.8768
        CHANNELS 3 Zrotation Xrotation Yrotation
        JOINT lShldr
        {
          OFFSET 8.77824 -1.95073 1.46304
          CHANNELS 3 Zrotation Xrotation Yrotation
          JOINT lForeArm
          {
            OFFSET 28.1742 -1.7115 0.48768
            CHANNELS 3 Zrotation Xrotation Yrotation
            JOINT lHand
            {
              OFFSET 22.5879 0.773209 7.07136
              CHANNELS 3 Zrotation Xrotation Yrotation
              JOINT lThumb1
              {
                OFFSET 1.2192 -0.487915 3.41376
                CHANNELS 3 Zrotation Xrotation Yrotation
                JOINT lThumb2
                {
                  OFFSET 3.37035 -0.52449 3.41376
                  CHANNELS 3 Zrotation Xrotation Yrotation
                  End Site
                  {
                    OFFSET 1.78271 -1.18214 1.43049
                  }
                }
              }
              JOINT lIndex1
              {
                OFFSET 7.75947 0.938293 5.60832
                CHANNELS 3 Zrotation Xrotation Yrotation
                JOINT lIndex2
                {
                  OFFSET 2.54057 -0.884171 1.56538
                  CHANNELS 3 Zrotation Xrotation Yrotation
                  End Site
                  {
                    OFFSET 1.62519 -0.234802 1.16502
                  }
                }
              }
              JOINT lMid1
              {
                OFFSET 8.24714 1.18213 3.41376
                CHANNELS 3 Zrotation Xrotation Yrotation
                JOINT lMid2
                {
                  OFFSET 3.10165 -0.590103 1.0647
                  CHANNELS 3 Zrotation Xrotation Yrotation
                  End Site
                  {
                    OFFSET 2.48547 -0.328903 0.83742
                  }
                }
              }
              JOINT lRing1
              {
                OFFSET 8.82822 0.546677 1.51678
                CHANNELS 3 Zrotation Xrotation Yrotation
                JOINT lRing2
                {
                  OFFSET 2.60934 -0.819778 -0.0198488
                  CHANNELS 3 Zrotation Xrotation Yrotation
                  End Site
                  {
                    OFFSET 2.33842 -0.294052 0.168128
                  }
                }
              }
              JOINT lPinky1
              {
                OFFSET 8.27202 -0.0477905 -0.4584
                CHANNELS 3 Zrotation Xrotation Yrotation
                JOINT lPinky2
                {
                  OFFSET 1.82734 -0.647385 -0.700984
                  CHANNELS 3 Zrotation Xrotation Yrotation
                  End Site
                  {
                    OFFSET 1.69225 -0.51767 -0.607171
                  }
                }
              }
            }
          }
        }
      }
    }
  }
  JOINT rButtock
  {
    OFFSET -8.77824 4.35084 1.2192
    CHANNELS 3 Zrotation Xrotation Yrotation
    JOINT rThigh
    {
      OFFSET 0 -1.70687 -2.19456
      CHANNELS 3 Zrotation Xrotation Yrotation
      JOINT rShin
      {
        OFFSET 0 -36.8199 0.73152
        CHANNELS 3 Zrotation Xrotation Yrotation
        JOINT rFoot
        {
          OFFSET 0.73152 -45.1104 -5.12064
          CHANNELS 3 Zrotation Xrotation Yrotation
          End Site
          {
            OFFSET -1.1221 -3.69964 12.103
          }
        }
      }
    }
  }
  JOINT lButtock
  {
    OFFSET 8.77824 4.35084 1.2192
    CHANNELS 3 Zrotation Xrotation Yrotation
    JOINT lThigh
    {
      OFFSET 0 -1.70687 -2.19456
      CHANNELS 3 Zrotation Xrotation Yrotation
      JOINT lShin
      {
        OFFSET 0 -36.8199 0.73152
        CHANNELS 3 Zrotation Xrotation Yrotation
        JOINT lFoot
        {
          OFFSET -0.73152 -45.1104 -5.12064
          CHANNELS 3 Zrotation Xrotation Yrotation
          End Site
          {
            OFFSET 1.1221 -3.69964 12.103
          }
        }
      }
    }
  }
}
MOTION
Frames:	4
Frame Time:	0.00833333
-219.065 83.282 -23.2442 2.25283 0.010538 -0.0431297 -2.96289 0.00183609 -0.0799158 -0.816456 0.0169088 -0.141252 3.05446e-014 0 -3.47873e-016 9.07794e-014 3.18055e-015 -1.19426e-015 -0 0 0 -0 0 0 1.55056e-014 2.03638e-016 4.96962e-017 3.23218e-013 4.2366e-015 -1.78906e-015 5.55032e-012 -1.50579e-012 -1.01778e-013 6.34091e-011 2.44806e-012 -6.01125e-013 1.49587e-010 2.04576e-012 -1.51076e-012 2.5832e-010 3.5336e-012 -2.63111e-012 1.49593e-010 2.04828e-012 -1.52667e-012 7.73091 5.47488 0.417314 1.49587e-010 2.04589e-012 -1.51712e-012 2.90554 0.965183 0.102902 1.49593e-010 2.04649e-012 -1.51633e-012 10.2786 0.731801 0.0259123 1.49585e-010 2.04629e-012 -1.5044e-012 2.22167 -0.733487 -0.20892 1.52077e-014 2.05385e-016 -4.47265e-016 3.20242e-013 4.31114e-015 -3.18055e-015 5.52885e-012 1.80735e-012 -1.30403e-013 6.33798e-011 -8.54004e-013 -5.53417e-013 1.49497e-010 2.06879e-012 -1.53303e-012 2.58176e-010 3.56858e-012 -2.64384e-012 1.49494e-010 2.06855e-012 -1.52667e-012 -7.73091 5.47488 -0.417314 1.49499e-010 2.06816e-012 -1.53621e-012 -2.90554 0.965183 -0.102902 1.49493e-010 2.06905e-012 -1.53303e-012 -10.2786 0.731801 -0.0259123 1.49504e-010 2.06975e-012 -1.54575e-012 -2.22167 -0.733487 0.20892 -2.03217e-016 0 -3.88251e-019 -1.77238 -1.93398 0.0122178 -0.0086675 -2.07864 -0.0712365 -0.477496 3.99977 0.135237 2.03217e-016 0 3.88251e-019 -2.72823 -9.04331 0.303214 -0.00826906 10.7977 -0.214924 0.53806 -1.76713 -0.0241649 
-213.155 82.6821 -28.9691 -6.60138 -13.9935 25.2126 -2.30924 1.77496 -0.261578 -1.49956 0.985048 -0.194944 0.357994 1.81141 -0.23219 0.705521 -3.44528 -0.390056 -0 0 0 -0 0 0 3.47689e-014 -1.74657e-013 2.63234e-015 22.6806 7.24242 -0.128825 -4.63146 -2.19331 7.13486 -2.71339e-005 0.0639449 0.00898727 -9.43166e-012 2.09785e-011 -1.6821e-011 -1.58455e-011 3.62656e-011 -2.88629e-011 -9.42453e-012 2.09807e-011 -1.68388e-011 7.73091 5.47488 0.417314 -9.4316e-012 2.09788e-011 -1.68255e-011 2.90554 0.965183 0.102902 -9.42533e-012 2.09791e-011 -1.68249e-011 10.2786 0.731801 0.0259123 -9.43657e-012 2.09795e-011 -1.68145e-011 2.22167 -0.733487 -0.20892 3.45354e-014 -1.74656e-013 2.18508e-015 -21.7763 6.62374 -0.248718 4.15223 -1.87141 -6.49701 -0.0566605 -5.28425 0.731292 -1.31627e-010 4.82549e-011 3.02325e-011 -2.28101e-010 8.23943e-011 4.93168e-011 -1.31631e-010 4.82541e-011 3.02371e-011 -7.73091 5.47488 -0.417314 -1.31626e-010 4.82545e-011 3.02312e-011 -2.90554 0.965183 -0.102902 -1.31634e-010 4.82554e-011 3.0233e-011 -10.2786 0.731801 -0.0259123 -1.31622e-010 4.82564e-011 3.02235e-011 -2.22167 -0.733487 0.20892 -2.03217e-016 0 -3.88251e-019 -0.833861 -3.55793 1.20861 0.0299872 6.71873 0.125681 -0.947731 -2.42425 -3.51394 2.03217e-016 0 3.88251e-019 -1.2348 -7.54554 1.47023 -0.0357393 14.458 -0.274626 0.678031 -6.04376 1.30541 
-213.15 82.6848 -28.9481 -3.91408 -19.5787 54.7129 -1.60694 3.64918 -0.453794 -2.21969 2.00848 -0.251687 0.752464 3.72714 -0.478437 1.39952 -7.08689 -0.807096 -0 0 0 -0 0 0 5.6201e-014 -3.64437e-013 5.62809e-015 46.694 14.8983 -0.272015 -8.94194 -4.40115 14.716 -0.000100418 0.116319 0.0163487 -1.83711e-010 4.60845e-011 -4.66838e-011 -3.16383e-010 7.96912e-011 -8.02528e-011 -1.83702e-010 4.60864e-011 -4.67037e-011 7.73091 5.47488 0.417314 -1.8371e-010 4.60851e-011 -4.66862e-011 2.90554 0.965183 0.102902 -1.83704e-010 4.6085e-011 -4.66859e-011 10.2786 0.731801 0.0259123 -1.83719e-010 4.60861e-011 -4.6677e-011 2.22167 -0.733487 -0.20892 5.60353e-014 -3.64436e-013 5.23052e-015 -44.7324 13.6256 -0.522352 8.08366 -3.76963 -13.3877 0.032537 -10.8673 1.5253 -4.31695e-010 1.01845e-010 7.73769e-011 -7.47306e-010 1.74013e-010 1.27679e-010 -4.31702e-010 1.01844e-010 7.73797e-011 -7.73091 5.47488 -0.417314 -4.31696e-010 1.01845e-010 7.73777e-011 -2.90554 0.965183 -0.102902 -4.31706e-010 1.01846e-010 7.73781e-011 -10.2786 0.731801 -0.0259123 -4.31693e-010 1.01848e-010 7.7372e-011 -2.22167 -0.733487 0.20892 -2.03217e-016 0 -3.88251e-019 0.230924 -5.27169 2.47886 0.00306762 16.0196 0.345471 -2.34117 -9.14735 -7.46002 2.03217e-016 0 3.88251e-019 0.275975 -5.96 2.69645 -0.0559117 18.3271 -0.341228 1.04526 -10.5566 2.74255 
-213.147 82.687 -28.9531 1.19604 -11.9534 78.2953 -0.96807 5.32094 -0.627228 -2.8603 2.9213 -0.302633 1.1182 5.43387 -0.699366 1.97387 -10.3339 -1.18731 -0 0 0 -0 0 0 7.32956e-014 -5.24378e-013 7.79764e-015 68.1458 21.7268 -0.41271 -12.29 -6.17267 21.5197 -0.000141584 0.191835 0.0269619 -3.27469e-010 5.88439e-011 -4.74415e-011 -5.64177e-010 1.0173e-010 -8.13266e-011 -3.2746e-010 5.88456e-011 -4.74631e-011 7.73091 5.47488 0.417314 -3.27468e-010 5.88447e-011 -4.74422e-011 2.90554 0.965183 0.102902 -3.27461e-010 5.88443e-011 -4.74421e-011 10.2786 0.731801 0.0259123 -3.27479e-010 5.88459e-011 -4.74347e-011 2.22167 -0.733487 -0.20892 7.3191e-014 -5.24378e-013 7.44977e-015 -65.147 19.8697 -0.788092 11.2061 -5.32607 -19.5685 0.248176 -15.8422 2.27085 -6.93875e-010 1.40627e-010 9.37636e-011 -1.20066e-009 2.40046e-010 1.53238e-010 -6.93882e-010 1.40625e-010 9.37647e-011 -7.73091 5.47488 -0.417314 -6.93877e-010 1.40627e-010 9.37661e-011 -2.90554 0.965183 -0.102902 -6.93888e-010 1.40628e-010 9.37652e-011 -10.2786 0.731801 -0.0259123 -6.93874e-010 1.4063e-010 9.3762e-011 -2.22167 -0.733487 0.20892 -2.03217e-016 0 -3.88251e-019 1.2478 -6.79476 3.61988 -0.0872602 24.3125 0.567131 -4.39289 -15.0087 -11.1885 2.03217e-016 0 3.88251e-019 1.56863 -4.54721 3.78552 -0.0658031 21.7784 -0.404415 1.57029 -14.5664 4.07391 
